<?xml version="1.0" encoding="UTF-8" standalone="no"?>
<svg
   xmlns:dc="http://purl.org/dc/elements/1.1/"
   xmlns:cc="http://creativecommons.org/ns#"
   xmlns:rdf="http://www.w3.org/1999/02/22-rdf-syntax-ns#"
   xmlns:svg="http://www.w3.org/2000/svg"
   xmlns="http://www.w3.org/2000/svg"
   xmlns:sodipodi="http://sodipodi.sourceforge.net/DTD/sodipodi-0.dtd"
   xmlns:inkscape="http://www.inkscape.org/namespaces/inkscape"
   inkscape:version="1.0 (4035a4fb49, 2020-05-01)"
   height="57.999657"
   width="60"
   sodipodi:docname="infraworks.svg"
   version="1.1"
   viewBox="0 0 60 57.999657"
   id="Layer_1"
   data-name="Layer 1">
  <metadata
     id="metadata35">
    <rdf:RDF>
      <cc:Work
         rdf:about="">
        <dc:format>image/svg+xml</dc:format>
        <dc:type
           rdf:resource="http://purl.org/dc/dcmitype/StillImage" />
        <dc:title></dc:title>
      </cc:Work>
    </rdf:RDF>
  </metadata>
  <defs
     id="defs33" />
  <sodipodi:namedview
     inkscape:current-layer="Layer_1"
     inkscape:window-maximized="1"
     inkscape:window-y="-9"
     inkscape:window-x="-9"
     inkscape:cy="27.086559"
     inkscape:cx="21.019603"
     inkscape:zoom="9.3691649"
     fit-margin-bottom="0"
     fit-margin-right="0"
     fit-margin-left="0"
     fit-margin-top="0"
     showgrid="false"
     id="namedview31"
     inkscape:window-height="1018"
     inkscape:window-width="1920"
     inkscape:pageshadow="2"
     inkscape:pageopacity="0"
     guidetolerance="10"
     gridtolerance="10"
     objecttolerance="10"
     borderopacity="1"
     bordercolor="#666666"
     pagecolor="#ffffff" />
  <path
     style="fill:#1a4389;fill-opacity:1"
     id="path2"
     d="M 38,24.000594 H 22 a 1,1 0 0 0 -1,1 v 12 a 1,1 0 0 0 1,1 h 16 a 1,1 0 0 0 1,-1 v -12 a 1,1 0 0 0 -1,-1 z m -15,2 h 2 v 2 h -2 z m 10,11 h -9 a 1,1 0 0 1 -1,-1 v -6 h 2 v 5 h 8 z m 4,0 h -2 v -2 h 2 z m 0,-4 h -2 v -5 h -8 v -2 h 9 a 1,1 0 0 1 1,1 z" />
  <path
     style="fill:#3471ad;fill-opacity:1"
     id="path4"
     d="m 43,40.000594 v -18 a 2,2 0 0 0 -2,-2 H 19 a 2,2 0 0 0 -2,2 v 18 a 2,2 0 0 0 2,2 h 22 a 2,2 0 0 0 2,-2 z m -5,0 H 22 a 3,3 0 0 1 -3,-3 v -12 a 3,3 0 0 1 3,-3 h 16 a 3,3 0 0 1 3,3 v 12 a 3,3 0 0 1 -3,3 z" />
  <path
     style="fill:#1a438b;fill-opacity:1"
     id="path6"
     d="M 60,53.000594 H 33.858 A 4,4 0 0 0 31,50.142594 v -7.142 h -2 v 7.142 a 4,4 0 0 0 -2.858,2.858 H 0 v 2 h 26.142 a 3.981,3.981 0 0 0 7.716,0 H 60 Z m -30,3 a 2,2 0 1 1 2,-2 2,2 0 0 1 -2,2 z" />
  <rect
     style="fill:#de0e0e;fill-opacity:1"
     id="rect8"
     y="43.000595"
     x="19"
     width="2"
     height="4" />
  <rect
     style="fill:#de0e0e;fill-opacity:1"
     id="rect10"
     y="43.000595"
     x="23"
     width="2"
     height="4" />
  <rect
     style="fill:#de0e0e;fill-opacity:1"
     id="rect12"
     y="43.000595"
     x="35"
     width="2"
     height="4" />
  <rect
     style="fill:#de0e0e;fill-opacity:1"
     id="rect14"
     y="43.000595"
     x="39"
     width="2"
     height="4" />
  <path
     style="fill:#1a438b;fill-opacity:1"
     id="path16"
     d="m 7,27.000594 h 5 v 1 h 4 v -2 h -1 v -2 h 1 v -2 h -1 a 4,4 0 0 1 4,-4 v -3 h 2 v 3 h 2 v -3 h 2 v 3 h 2 v -3 h 2 v 3 h 2 v -3 h 2 v 3 h 2 v -3 h 2 v 3 h 2 v -3 h 2 v 3 a 4,4 0 0 1 4,4 h -1 v 2 h 1 v 2 h -1 v 2 h 4 v -1 A 10,10 0 0 0 48,7.0005937 h -0.61 a 1,1 0 0 1 -0.943,-0.667 9.486,9.486 0 0 0 -17.573,-0.794 1,1 0 0 1 -1.619,0.285 A 9.5,9.5 0 0 0 11,12.500594 v 3.5 a 1,1 0 0 1 -1,1 H 7 a 5,5 0 0 0 0,10 z m 47,-7 h -2 v -2 h 2 z m -6,-10 a 6.006,6.006 0 0 1 6,6 h -2 a 4,4 0 0 0 -4,-4 z" />
  <rect
     style="fill:#de0e0e;fill-opacity:1"
     id="rect18"
     y="30.000593"
     x="44"
     width="4"
     height="2" />
  <rect
     style="fill:#de0e0e;fill-opacity:1"
     id="rect20"
     y="34.000595"
     x="44"
     width="4"
     height="2" />
  <rect
     style="fill:#de0e0e;fill-opacity:1"
     id="rect22"
     y="38.000595"
     x="44"
     width="4"
     height="2" />
  <rect
     style="fill:#de0e0e;fill-opacity:1"
     id="rect24"
     y="30.000593"
     x="12"
     width="4"
     height="2" />
  <rect
     style="fill:#de0e0e;fill-opacity:1"
     id="rect26"
     y="34.000595"
     x="12"
     width="4"
     height="2" />
  <rect
     style="fill:#de0e0e;fill-opacity:1"
     id="rect28"
     y="38.000595"
     x="12"
     width="4"
     height="2" />
</svg>
